<?xml version="1.0" standalone="no"?>
<!DOCTYPE svg PUBLIC "-//W3C//DTD SVG 20010904//EN"
 "http://www.w3.org/TR/2001/REC-SVG-20010904/DTD/svg10.dtd">
<svg version="1.0" xmlns="http://www.w3.org/2000/svg"
 width="3724.000000pt" height="3525.000000pt" viewBox="0 0 3724.000000 3525.000000"
 preserveAspectRatio="xMidYMid meet">

<g transform="translate(0.000000,3525.000000) scale(0.100000,-0.100000)"
fill="#000000" stroke="none">
<path d="M17004 35226 c-128 -40 -243 -138 -295 -251 -15 -33 -161 -535 -324
-1115 -206 -732 -306 -1072 -327 -1112 -40 -75 -131 -161 -210 -198 -41 -19
-139 -45 -283 -75 -638 -134 -1204 -288 -1804 -490 -210 -70 -305 -70 -448 0
-68 34 -126 88 -869 813 -438 427 -820 793 -850 813 -82 55 -152 74 -264 73
-70 0 -110 -6 -150 -21 -30 -11 -649 -363 -1375 -782 -1409 -813 -1389 -801
-1455 -916 -41 -72 -60 -148 -60 -237 0 -70 30 -194 271 -1141 179 -700 273
-1086 276 -1133 6 -84 -7 -154 -44 -232 -32 -68 -108 -146 -388 -397 -256
-230 -780 -754 -1005 -1005 -251 -281 -303 -331 -381 -368 -80 -38 -181 -55
-264 -42 -33 4 -529 128 -1102 274 -573 147 -1068 269 -1100 272 -79 8 -164
-9 -249 -51 -137 -67 -110 -25 -941 -1466 -414 -717 -761 -1325 -772 -1350
-50 -114 -45 -263 14 -387 28 -60 57 -96 153 -195 66 -67 417 -428 782 -802
364 -374 678 -702 697 -730 48 -72 74 -163 74 -262 0 -75 -7 -102 -86 -345
-170 -517 -329 -1110 -434 -1613 -58 -279 -80 -350 -129 -424 -37 -56 -109
-119 -174 -152 -21 -11 -518 -155 -1104 -319 -586 -165 -1091 -312 -1121 -327
-73 -36 -138 -95 -185 -167 -21 -32 -38 -63 -38 -68 0 -4 819 -8 1820 -8 1448
0 1821 3 1824 13 2 6 16 107 31 222 60 467 165 1014 291 1515 692 2764 2208
5241 4371 7139 158 139 161 143 156 176 -16 98 44 149 282 239 85 32 129 56
181 98 332 263 868 634 1284 890 2823 1733 6180 2407 9470 1902 1312 -201
2578 -585 3793 -1151 215 -101 270 -131 180 -99 -67 23 -183 37 -228 26 -113
-26 -98 -149 42 -335 65 -85 281 -301 374 -374 l57 -44 -80 -61 c-44 -34 -103
-75 -132 -92 -186 -110 -385 -275 -696 -580 l-125 -123 -67 50 c-219 160 -638
435 -953 624 -899 541 -1650 859 -2188 927 -114 14 -137 7 -171 -52 -30 -50
-28 -162 3 -255 94 -280 391 -679 871 -1169 394 -402 900 -829 1294 -1091
l115 -77 -162 -156 c-89 -86 -297 -290 -462 -454 -165 -164 -305 -298 -311
-298 -5 0 -48 43 -94 95 -79 90 -86 95 -114 89 -62 -12 -91 -37 -94 -78 -3
-38 -4 -38 -40 -32 -69 10 -427 19 -502 12 l-75 -7 -34 -51 c-30 -46 -32 -53
-17 -63 8 -7 152 -81 318 -165 167 -84 305 -154 307 -156 1 -1 -25 -35 -58
-74 -67 -78 -67 -72 -12 -132 14 -16 34 -28 46 -28 11 0 72 29 134 63 l114 64
191 -92 c257 -124 315 -149 323 -141 4 4 9 35 11 69 3 56 -1 74 -47 185 -28
68 -61 142 -72 164 -11 22 -19 41 -17 42 8 6 948 548 1143 659 l220 125 55
-25 c527 -237 1225 -438 1962 -564 181 -31 186 -31 433 -25 330 7 512 34 628
93 134 68 131 155 -13 306 -220 232 -830 617 -1702 1074 -142 74 -258 138
-258 141 0 3 37 44 83 91 103 108 235 261 315 368 66 86 172 259 172 279 0 6
20 40 44 75 24 35 55 88 70 117 14 28 28 52 31 52 3 0 57 -30 120 -66 367
-210 676 -288 742 -188 55 85 -88 315 -335 539 l-87 80 105 -111 c107 -113
175 -212 186 -272 31 -162 -217 -122 -602 96 l-82 46 5 80 c5 93 -5 119 -56
153 -41 28 -106 30 -198 7 l-63 -16 -70 62 c-261 231 -375 429 -279 481 34 18
151 5 244 -27 97 -33 293 -132 412 -208 48 -31 75 -45 58 -30 l-30 26 50 -28
c1406 -787 2716 -1863 3785 -3109 427 -498 837 -1052 1198 -1617 41 -66 69
-99 84 -103 13 -2 91 -14 173 -25 133 -18 178 -29 393 -101 l244 -82 168 -124
c214 -158 203 -136 219 -448 7 -126 17 -291 22 -365 14 -190 12 -344 -7 -389
-8 -20 -28 -56 -44 -81 -25 -40 -50 -142 -50 -204 0 -10 41 -28 130 -58 72
-23 130 -47 130 -53 -1 -33 -16 -34 -138 -3 -67 17 -126 28 -129 24 -4 -4 -14
-60 -23 -124 l-16 -117 106 -11 c58 -7 135 -20 170 -29 90 -24 234 -95 301
-149 53 -41 57 -48 61 -93 3 -26 3 -50 2 -52 -2 -2 -22 13 -45 32 -58 50 -180
112 -269 136 -141 40 -265 38 -477 -5 -31 -6 -33 -5 -33 23 l0 29 -82 -3
c-172 -6 -796 -23 -875 -23 l-83 0 0 -104 0 -104 66 -7 c131 -14 233 -63 329
-160 150 -149 225 -363 212 -603 -20 -377 -268 -662 -577 -662 -247 0 -464
186 -546 470 l-22 75 -38 3 c-34 3 -425 -18 -626 -34 l-78 -6 0 51 0 51 133 1
c72 1 236 4 362 8 l230 6 3 33 3 32 -78 0 c-43 0 -217 -7 -388 -14 -235 -11
-312 -11 -317 -3 -4 7 -8 33 -8 60 l0 47 393 0 394 0 22 111 c12 62 31 193 43
291 23 191 21 188 82 202 l28 7 -6 -58 c-4 -32 -9 -76 -12 -98 l-5 -40 36 43
c47 54 151 129 213 152 42 16 48 22 54 56 4 22 7 72 7 112 l1 72 -85 0 -85 0
-78 -72 c-68 -64 -90 -78 -177 -112 -55 -21 -156 -62 -225 -91 -69 -29 -151
-61 -183 -70 -55 -16 -59 -16 -78 1 -27 24 -24 31 16 38 159 30 532 190 615
264 l45 40 -135 -5 c-74 -3 -137 -7 -139 -9 -2 -2 7 -19 19 -39 l23 -37 -35
-35 -36 -35 -24 73 -25 74 -226 -4 -226 -3 -25 25 c-30 30 -30 27 -61 376 -14
157 -27 286 -28 288 -2 2 -65 7 -139 11 -89 5 -142 13 -153 22 -9 7 -149 192
-311 412 -271 364 -304 405 -388 475 -545 458 -1050 418 -1512 -121 -52 -60
-124 -153 -161 -208 -65 -96 -67 -98 -107 -99 -121 -4 -238 -27 -384 -75 -128
-42 -244 -101 -345 -177 -58 -44 -92 -62 -135 -72 -240 -54 -378 -129 -569
-310 -53 -49 -93 -80 -93 -72 0 27 67 222 95 278 70 138 197 284 301 345 l46
27 -29 23 c-52 44 -185 103 -255 114 -159 24 -327 -39 -484 -183 -30 -27 -54
-47 -54 -45 0 19 46 132 82 200 92 177 270 298 439 298 75 0 174 -32 238 -75
28 -20 51 -31 51 -26 0 5 -21 31 -47 59 -86 92 -200 125 -331 98 -98 -20 -171
-55 -240 -114 -202 -174 -422 -259 -598 -232 -228 35 -432 245 -564 580 l-21
54 55 -52 c155 -147 395 -169 708 -66 53 17 120 53 215 115 173 113 341 199
480 246 102 35 115 37 238 38 122 0 134 -2 190 -28 66 -31 115 -72 151 -129
61 -95 282 -277 410 -338 79 -38 202 -70 268 -70 156 1 315 81 429 218 52 63
58 77 25 68 -165 -47 -341 -54 -454 -18 -163 50 -281 172 -344 357 l-17 50
-44 -2 c-24 -1 -196 -14 -382 -29 -186 -14 -340 -24 -342 -22 -4 4 343 996
351 1007 6 8 669 69 676 63 17 -18 268 -487 268 -502 0 -17 -88 -411 -93 -416
-1 -2 -27 7 -56 19 -45 18 -60 30 -83 71 -16 27 -27 50 -25 53 2 2 17 -1 32
-7 15 -6 29 -9 31 -7 2 1 11 83 22 181 l18 177 -36 19 c-32 16 -73 19 -314 26
l-279 7 5 -177 4 -177 31 -31 c31 -31 32 -31 195 -44 90 -7 172 -13 184 -13
17 -1 24 -15 44 -82 27 -95 25 -98 -60 -99 l-55 -1 30 -24 c50 -41 169 -94
262 -116 157 -38 352 -15 494 56 89 46 163 59 319 58 117 0 170 -5 274 -27
150 -31 348 -95 499 -161 l106 -47 51 -80 c28 -43 47 -85 44 -91 -4 -7 -4 -9
0 -6 4 4 17 -2 29 -12 12 -10 54 -42 94 -71 160 -118 192 -155 494 -562 l291
-393 162 -8 c88 -3 163 -8 165 -10 2 -2 17 -157 34 -344 l31 -341 85 0 c155 0
2113 59 2118 64 2 2 21 125 42 273 l37 268 40 60 c38 59 39 62 42 168 l4 107
-35 15 c-33 14 -36 19 -41 67 -8 80 -27 480 -23 485 2 2 18 -18 36 -44 l31
-48 -7 125 c-3 69 -9 132 -12 141 -3 9 -76 68 -161 131 l-155 115 -230 77
-230 77 -824 114 -824 114 -91 88 c-50 49 -176 171 -280 271 -104 100 -186
185 -182 189 4 4 28 8 54 8 46 1 47 2 63 46 38 103 45 93 -93 138 -644 209
-1406 369 -2013 422 l-130 11 -744 -123 -744 -124 -67 -90 -67 -90 -484 -139
-485 -139 -229 -401 c-125 -221 -229 -402 -230 -403 -1 -2 -188 -14 -416 -29
-228 -14 -417 -29 -420 -32 -5 -6 -90 -785 -89 -814 0 -5 24 -8 53 -8 l53 0
23 58 c63 156 182 297 299 354 62 31 74 33 167 33 90 0 106 -3 160 -29 87 -42
208 -168 262 -271 92 -178 129 -357 120 -584 -4 -80 -9 -157 -12 -171 l-7 -26
-44 21 -44 20 7 110 6 109 -39 -31 -40 -32 -12 46 c-9 33 -27 59 -68 98 l-55
53 43 25 c24 13 63 35 88 49 40 21 45 28 43 57 0 18 -3 35 -6 38 -3 3 -84 -36
-180 -86 l-175 -91 50 -87 c87 -152 169 -329 284 -613 51 -124 63 -148 63
-120 1 29 10 45 54 87 28 28 83 67 121 86 l70 34 -26 17 c-86 56 3 31 545
-151 320 -108 584 -197 586 -199 6 -5 -21 -94 -28 -94 -4 0 -60 18 -124 39
l-117 40 -9 -37 c-6 -20 -27 -104 -47 -187 -20 -82 -40 -153 -43 -157 -3 -4
-107 -10 -231 -15 l-224 -8 328 -85 c180 -47 331 -87 335 -90 12 -7 -10 -160
-23 -160 -6 0 -156 61 -333 137 -322 136 -323 136 -329 170 -6 29 -10 33 -39
33 -29 0 -34 4 -40 31 -4 17 -5 32 -3 35 3 2 42 0 89 -6 46 -5 152 -11 236
-14 l152 -5 37 117 c20 64 47 150 60 190 16 53 20 74 11 77 -7 3 -31 11 -54
19 l-43 15 0 -98 c0 -117 -10 -135 -98 -178 -54 -27 -65 -28 -224 -32 l-168
-3 0 93 c0 93 0 94 -29 110 -23 13 -34 33 -56 100 -15 46 -36 101 -46 121 -11
21 -20 52 -20 70 -1 18 -3 26 -5 18 -3 -8 -34 -31 -71 -50 -36 -19 -92 -60
-124 -90 l-58 -55 60 -150 c34 -82 62 -151 64 -153 2 -2 56 38 120 89 l118 93
19 -24 c10 -13 16 -30 13 -37 -3 -8 -5 -18 -5 -23 0 -4 -39 -39 -87 -78 -49
-38 -98 -81 -111 -95 -22 -24 -23 -26 -8 -62 9 -21 16 -49 16 -62 0 -35 -60
-93 -95 -93 -27 0 -28 -1 -21 -45 l6 -46 -64 46 -64 45 -166 0 -166 0 0 -109
0 -108 29 -6 c16 -3 101 -52 190 -109 l162 -102 -7 -56 c-3 -30 -10 -59 -14
-64 -5 -4 -93 40 -196 98 -103 58 -190 106 -194 106 -3 0 -14 -15 -22 -34 -12
-24 -17 -68 -19 -156 l-2 -122 95 -52 c103 -56 201 -133 224 -178 l14 -28 -47
19 c-146 58 -318 133 -329 142 -27 22 -42 -39 -45 -183 l-4 -136 95 -42 c52
-23 99 -46 104 -50 4 -5 -6 -16 -23 -25 -30 -15 -36 -14 -130 15 -54 16 -102
30 -106 30 -4 0 -5 -49 -3 -110 2 -84 6 -110 17 -110 26 0 180 78 287 147 60
38 167 105 239 149 109 66 146 97 236 189 59 60 106 111 104 113 -2 2 -36 -18
-77 -45 -105 -71 -107 -72 -64 -22 65 73 127 139 131 139 2 0 6 -14 10 -30 6
-26 9 -29 22 -19 11 10 13 24 8 62 -6 42 -3 59 18 106 81 176 87 193 78 257
-7 49 0 159 11 169 2 2 39 -8 83 -21 44 -13 112 -33 150 -45 39 -11 77 -23 85
-26 8 -4 101 -34 205 -67 l190 -62 6 -239 c11 -440 72 -703 250 -1086 115
-249 214 -398 371 -565 91 -96 167 -147 348 -232 214 -102 429 -168 691 -213
156 -27 544 -37 725 -20 285 28 568 92 654 148 30 20 149 89 265 153 227 127
408 233 440 259 11 9 92 90 180 180 l160 163 -160 -97 -159 -97 81 88 c45 49
110 117 145 152 l64 62 18 -50 18 -51 23 21 c21 20 21 22 7 98 l-15 77 98 194
c107 211 107 212 81 334 -11 56 -11 77 1 144 8 43 22 123 31 178 l17 100 113
8 c63 5 116 7 118 4 2 -2 14 -37 25 -78 35 -132 102 -301 176 -449 210 -419
519 -684 900 -771 116 -26 742 -49 866 -31 120 18 316 88 492 177 245 124 329
180 433 290 l90 95 16 -71 c69 -300 157 -803 202 -1146 l28 -213 1833 0 c1008
0 1833 3 1833 8 0 4 -13 30 -29 58 -37 63 -125 145 -194 178 -28 14 -524 158
-1102 320 -659 185 -1074 307 -1114 326 -84 41 -161 115 -204 198 -29 56 -46
117 -97 357 -121 566 -262 1090 -431 1602 -100 303 -114 377 -89 485 32 135
22 124 856 978 427 437 791 818 810 845 78 116 101 282 56 412 -16 46 -951
1679 -1493 2609 -33 56 -83 125 -111 153 -93 93 -246 150 -370 137 -31 -3
-533 -127 -1115 -275 -582 -148 -1079 -272 -1104 -275 -71 -10 -175 10 -256
50 -78 38 -78 38 -414 409 -310 342 -757 782 -1143 1126 -202 180 -250 263
-250 434 0 85 14 146 268 1140 147 578 272 1076 276 1108 19 134 -34 289 -134
388 -45 46 -260 173 -1382 821 -731 421 -1354 775 -1384 785 -75 25 -215 24
-293 -1 -32 -10 -84 -37 -116 -60 -32 -23 -404 -378 -826 -791 -422 -412 -793
-769 -824 -792 -87 -66 -157 -88 -276 -88 -97 0 -106 2 -315 72 -517 173
-1100 332 -1605 437 -304 64 -354 77 -414 107 -78 39 -163 125 -201 202 -18
38 -143 467 -326 1117 -189 671 -307 1076 -326 1114 -55 110 -155 195 -275
235 -62 21 -68 21 -1635 20 -1242 0 -1582 -3 -1614 -13z m4155 -5161 c480
-165 1062 -453 1677 -830 199 -122 672 -435 823 -545 l113 -83 -391 -391
c-341 -341 -398 -394 -434 -403 -23 -6 -43 -10 -45 -8 -2 2 121 189 273 415
238 354 275 413 263 427 -30 37 -242 212 -358 296 -174 126 -440 298 -652 420
l-47 27 -158 -152 c-272 -262 -257 -252 -167 -113 42 66 108 167 146 223 38
57 68 105 66 107 -21 20 -488 264 -843 441 -247 123 -444 224 -438 224 6 0 83
-25 172 -55z m3964 -878 l67 -62 -62 -103 c-142 -232 -315 -441 -602 -727
-203 -202 -385 -366 -622 -561 -497 -407 -1152 -870 -1764 -1246 -153 -93
-390 -224 -390 -215 0 3 98 93 218 200 119 107 858 776 1642 1486 784 710
1430 1290 1435 1290 6 0 40 -28 78 -62z m-183 -1207 c621 -320 1227 -716 1493
-977 77 -75 135 -145 106 -128 -7 5 -66 46 -129 91 -229 162 -780 498 -807
492 -7 -2 -101 -88 -209 -193 -109 -104 -192 -181 -186 -170 6 11 71 112 145
225 75 113 133 208 129 211 -23 21 -692 368 -788 409 l-51 21 -209 -137 c-115
-75 -274 -179 -354 -231 l-145 -93 330 324 c266 262 334 324 350 319 11 -3
157 -77 325 -163z m2075 -1970 c578 -30 1022 -117 1320 -260 100 -48 100 -48
378 -320 153 -150 276 -274 274 -277 -2 -2 -60 3 -128 11 -298 36 -440 41
-1134 41 -379 0 -751 -3 -825 -7 l-135 -7 -220 380 c-121 209 -221 388 -223
398 -7 41 24 46 323 49 94 1 260 -3 370 -8z m-2560 -791 c-246 -348 -290 -404
-313 -407 -54 -5 -457 -30 -459 -28 -3 3 354 627 365 638 10 10 684 208 690
203 2 -2 -126 -184 -283 -406z m4380 -629 c226 -17 425 -34 444 -38 l34 -7
117 -295 c65 -162 117 -296 116 -298 -4 -3 -755 48 -783 54 -13 2 -62 55 -127
138 -79 101 -127 176 -195 305 -50 94 -91 173 -91 176 0 3 17 3 38 0 20 -3
222 -19 447 -35z m975 0 c786 -32 1325 -110 1591 -232 77 -35 71 -17 90 -262
12 -164 0 -358 -24 -382 -2 -3 -155 9 -338 25 -387 35 -519 44 -944 67 -170 9
-329 19 -353 23 l-43 6 -119 258 c-96 209 -200 459 -200 483 0 8 44 23 70 23
14 1 135 -4 270 -9z m-2755 -745 c103 -16 230 -44 324 -71 53 -15 53 -15 35
-36 -21 -22 -28 -22 -183 11 -325 69 -748 39 -1100 -80 -68 -23 -102 -29 -175
-29 l-90 0 29 30 c68 71 338 159 578 190 105 13 464 4 582 -15z m2593 -192
l112 -6 1 -36 c0 -20 6 -139 12 -266 l12 -230 285 3 c157 1 495 5 752 8 l466
7 10 22 c6 12 27 105 47 206 20 101 40 187 43 191 4 3 59 9 122 12 l115 6 -75
-36 c-41 -20 -76 -37 -78 -38 -1 -2 -16 -108 -32 -236 -16 -128 -32 -235 -35
-238 -3 -4 -1302 -28 -1709 -31 l-58 -1 4 269 3 270 -135 37 c-74 21 -187 53
-250 71 l-115 33 195 -5 c107 -3 246 -8 308 -12z m-2354 -23 c131 -26 309 -83
424 -135 l84 -39 -35 -18 -35 -18 -85 40 c-226 106 -572 126 -903 53 -119 -27
-225 -34 -298 -19 l-38 7 32 24 c69 51 218 101 369 125 98 15 364 5 485 -20z
m231 -400 c142 -30 347 -100 479 -165 l113 -55 16 -75 c10 -42 17 -80 17 -84
0 -5 -30 11 -67 35 -166 109 -479 194 -883 239 -117 13 -163 23 -239 52 -111
42 -108 46 54 68 139 19 380 12 510 -15z m1235 -372 c0 -20 -3 -44 -6 -53 -4
-9 -52 -39 -108 -67 -126 -63 -174 -96 -254 -172 -68 -65 -81 -65 -82 -1 0 17
-3 46 -6 65 -5 32 0 41 62 108 79 86 110 107 253 172 l106 48 17 -31 c9 -18
17 -49 18 -69z m3776 -244 c8 -29 -15 -70 -104 -191 -48 -64 -79 -98 -83 -90
-3 6 -9 33 -12 60 -6 46 -4 51 71 172 l77 124 22 -27 c13 -15 25 -37 29 -48z
m-4871 26 c205 -43 427 -133 592 -239 78 -50 81 -53 97 -109 9 -31 24 -87 35
-124 l19 -67 -63 52 c-181 150 -493 277 -860 351 l-130 27 -60 61 c-54 56 -58
62 -40 70 35 15 302 1 410 -22z m-1650 -46 c118 -30 228 -120 315 -254 43 -68
100 -181 100 -199 0 -3 -21 30 -47 74 -92 159 -244 272 -378 283 -402 32 -683
-657 -525 -1286 77 -303 252 -521 443 -552 174 -28 366 96 475 307 20 39 38
70 40 68 7 -7 -77 -174 -119 -236 -168 -250 -412 -319 -621 -176 -312 214
-462 838 -328 1363 83 324 257 553 460 608 72 19 113 19 185 0z m3745 -149 c0
-19 -20 -41 -93 -98 -91 -73 -93 -74 -166 -81 -42 -4 -98 -18 -129 -32 -64
-28 -62 -28 -62 -11 0 7 17 21 37 31 21 10 43 26 51 37 10 15 25 19 71 19 56
0 61 2 172 80 63 44 115 80 117 80 1 0 2 -11 2 -25z m-4 -110 c-75 -65 -188
-145 -205 -145 -22 0 -111 -36 -111 -45 0 -2 19 -3 43 -2 36 3 63 17 159 84
110 77 116 80 121 57 3 -19 -10 -34 -79 -89 -104 -82 -128 -95 -184 -95 -25
-1 -56 -7 -70 -15 -14 -8 -31 -14 -37 -15 -16 0 -17 32 -2 47 9 9 7 11 -8 7
-41 -11 -34 16 9 36 l43 20 -35 -3 c-19 -2 -41 -6 -49 -8 -7 -2 -15 1 -18 8
-2 6 20 22 50 36 42 19 65 24 100 20 43 -5 49 -2 158 75 106 75 114 79 120 59
3 -12 1 -26 -5 -32z m2119 44 c192 -24 377 -89 459 -162 31 -28 39 -45 61
-134 14 -56 25 -104 25 -108 0 -3 -28 17 -62 45 -79 64 -240 144 -339 169
-114 29 -272 45 -377 38 l-92 -6 -45 61 c-50 68 -51 71 -32 86 26 22 260 28
402 11z m775 -71 c6 -24 18 -67 26 -96 8 -29 11 -58 8 -65 -34 -56 -188 -247
-200 -247 -31 0 -25 36 37 198 82 220 96 252 108 252 6 0 15 -19 21 -42z
m-3666 -33 c16 -15 26 -35 26 -52 0 -30 -33 -93 -49 -93 -17 0 -247 -176 -348
-267 -54 -48 -107 -94 -117 -102 -18 -16 -19 -13 -12 89 3 57 12 112 19 123
14 21 427 326 443 327 6 0 23 -11 38 -25z m336 -139 c22 -49 42 -97 45 -106 4
-12 -15 -27 -74 -58 -43 -23 -83 -42 -89 -42 -5 0 -17 19 -25 43 -8 23 -26 72
-40 110 l-26 67 77 40 c42 21 81 38 85 37 4 -1 26 -42 47 -91z m-5280 15 c0
-39 -5 -44 -136 -160 -75 -67 -140 -121 -145 -121 -5 0 -9 20 -9 44 l0 43 136
117 c75 64 140 116 145 116 5 0 9 -18 9 -39z m2192 -109 c10 -10 5 -10 -20 -1
-106 37 -221 -82 -255 -263 -7 -39 -8 -63 -2 -65 6 -2 102 -43 215 -92 237
-102 217 -106 219 44 2 141 -34 249 -108 330 l-36 40 38 -35 c81 -74 126 -192
134 -351 11 -216 -53 -399 -165 -470 -57 -36 -91 -43 -142 -29 -145 39 -250
290 -222 532 20 166 81 292 171 350 40 26 53 29 104 26 31 -3 63 -10 69 -16z
m226 -82 c0 -8 -6 1 -13 20 -7 19 -13 42 -13 50 0 8 6 -1 13 -20 7 -19 13 -42
13 -50z m1305 -30 c133 -37 145 -43 412 -196 193 -112 275 -164 279 -178 2
-12 8 -52 12 -90 l7 -69 -54 41 c-179 135 -527 307 -809 401 l-96 31 -37 69
c-20 38 -37 71 -37 74 0 6 58 -9 323 -83z m-1296 -12 c-3 -8 -6 -5 -6 6 -1 11
2 17 5 13 3 -3 4 -12 1 -19z m5313 -52 c124 -21 478 -170 533 -224 l39 -39 5
-104 6 -103 -59 51 c-188 162 -406 240 -642 230 l-113 -4 5 26 c3 14 8 58 12
96 3 39 8 73 11 78 7 12 111 8 203 -7z m-6085 -50 l70 -26 0 -177 c0 -155 3
-189 23 -262 80 -295 263 -444 444 -363 89 39 183 163 224 294 26 84 29 63 5
-27 -102 -370 -346 -559 -576 -446 -227 112 -380 512 -345 903 5 58 12 117 15
131 6 24 8 25 38 13 18 -8 64 -25 102 -40z m-1721 -88 c-3 -18 -14 -43 -23
-56 -16 -23 -333 -283 -338 -278 -2 2 2 16 8 32 9 25 337 334 355 334 3 0 2
-15 -2 -32z m8744 -57 c-4 -42 -14 -83 -29 -112 -29 -56 -125 -183 -169 -224
l-32 -30 4 71 c5 70 8 76 97 222 79 128 96 149 113 144 19 -5 20 -11 16 -71z
m-3636 -107 c1 -30 0 -63 -4 -73 -11 -30 -488 -414 -489 -393 0 9 -4 43 -8 75
l-7 59 244 194 c135 107 248 194 253 194 4 0 9 -25 11 -56z m2752 -273 c64
-33 177 -101 251 -152 l135 -92 0 -100 0 -100 -40 46 c-87 98 -234 186 -381
227 -40 11 -123 25 -183 31 -61 6 -112 13 -114 14 -1 1 10 36 26 76 16 41 32
82 35 92 5 14 19 17 81 17 70 0 79 -3 190 -59z m-4175 -83 c121 -31 129 -35
395 -191 149 -87 274 -162 278 -165 6 -6 -19 -202 -28 -211 -4 -4 -716 368
-730 383 -11 10 -54 176 -54 205 0 15 -1 15 139 -21z m4876 -137 c-7 -43 -34
-82 -122 -174 -59 -62 -73 -62 -73 -1 0 26 16 46 97 127 54 53 99 94 101 92 2
-2 1 -22 -3 -44z m-3561 -201 c-28 -99 -97 -159 -591 -513 l-53 -38 21 53 c11
29 35 65 52 79 18 15 156 130 307 257 151 127 276 229 278 227 2 -2 -4 -31
-14 -65z m2899 -219 c26 -19 47 -38 47 -42 0 -3 -11 -11 -25 -17 -32 -15 -83
9 -233 110 -81 54 -102 73 -97 86 4 9 11 29 17 44 l10 27 116 -86 c64 -48 138
-102 165 -122z m-4225 -215 c189 -95 244 -127 327 -195 89 -71 165 -154 153
-166 -4 -4 -647 241 -656 250 -5 4 -62 206 -62 218 0 4 2 7 5 7 3 0 108 -51
233 -114z m-323 -591 c365 -154 410 -174 413 -184 4 -13 -73 -50 -104 -51 -26
0 -395 106 -404 117 -17 19 -89 195 -77 190 6 -2 84 -35 172 -72z"/>
<path d="M29547 24553 c-17 -16 0 -66 115 -327 l123 -279 50 -33 c38 -26 60
-34 95 -34 57 0 90 9 90 24 0 12 -180 619 -186 625 -2 2 -232 28 -275 31 -3 0
-9 -3 -12 -7z"/>
<path d="M29943 24553 c-30 -6 -29 -12 9 -115 21 -58 38 -88 48 -88 8 0 276
-22 595 -50 318 -27 580 -48 582 -46 4 4 -23 156 -29 162 -3 2 -257 34 -564
69 -308 36 -572 66 -589 68 -16 3 -40 2 -52 0z"/>
<path d="M31224 24328 c4 -29 13 -147 21 -263 9 -115 18 -229 21 -251 l5 -41
70 -7 c39 -4 78 -10 86 -13 14 -6 15 24 11 271 -5 241 -8 279 -22 295 -13 15
-159 61 -191 61 -4 0 -4 -24 -1 -52z"/>
<path d="M30009 24304 c-9 -11 -4 -35 26 -120 21 -58 43 -107 49 -109 21 -7
1097 -77 1102 -72 3 3 -1 47 -8 98 l-13 94 -525 56 c-289 31 -546 59 -572 62
-34 4 -50 2 -59 -9z"/>
<path d="M30100 24012 c1 -4 13 -38 28 -77 26 -67 29 -70 67 -76 71 -13 1014
-93 1020 -87 4 3 3 44 -2 89 l-8 84 -475 31 c-261 18 -510 34 -552 38 -43 3
-78 2 -78 -2z"/>
<path d="M18610 30783 c-443 -35 -825 -325 -906 -689 -12 -56 -14 -100 -9
-191 3 -65 9 -370 13 -678 l7 -560 34 -65 c38 -74 99 -165 141 -213 l28 -32
76 -1025 c41 -564 78 -1043 80 -1066 l5 -41 -132 -23 c-166 -28 -472 -105
-642 -160 -130 -42 -434 -157 -447 -169 -4 -3 -51 -275 -105 -603 l-97 -598
-496 -2 -495 -3 -145 -435 -145 -435 -436 -5 -435 -5 -42 -28 c-132 -87 -284
-372 -537 -1007 -74 -184 -150 -371 -169 -415 l-35 -80 51 -3 c49 -3 50 -4 44
-30 -14 -57 -18 -308 -7 -379 26 -168 101 -327 176 -373 38 -24 239 -67 358
-77 l77 -6 0 -163 0 -164 40 0 40 0 0 -185 0 -185 35 0 35 0 0 -185 0 -185
1000 0 1000 0 0 38 0 39 113 6 c61 4 149 7 193 7 l82 0 87 351 c48 192 91 347
95 342 4 -4 18 -38 30 -76 l24 -67 1534 2 1535 3 34 95 c19 52 36 96 37 98 2
1 46 -166 97 -373 l94 -375 100 0 c55 0 130 -3 168 -7 l67 -6 0 -38 0 -39 995
0 995 0 0 185 0 185 35 0 35 0 0 185 0 185 40 0 40 0 0 185 0 185 35 0 35 0 2
183 3 182 38 3 37 3 0 210 c0 179 -2 209 -15 209 -8 0 -15 7 -15 15 0 13 39
15 289 15 l289 0 -55 128 c-30 70 -94 228 -143 352 -252 646 -418 952 -564
1041 -29 18 -56 19 -461 19 l-431 0 -145 438 -145 437 -496 3 -496 2 -5 28
c-3 15 -47 284 -98 597 -50 314 -93 571 -94 573 -2 2 -58 25 -124 53 -286 116
-646 220 -946 274 -82 15 -151 28 -152 29 -2 1 33 477 76 1058 l79 1055 53 67
c30 36 76 105 103 152 48 84 50 89 58 198 4 61 9 379 10 706 l3 595 -23 75
c-113 359 -447 605 -883 650 -99 10 -118 10 -209 3z m199 -83 c192 -20 345
-73 492 -172 394 -263 461 -739 151 -1069 -382 -407 -1107 -411 -1488 -7 -192
204 -250 463 -158 707 108 287 418 502 780 540 114 12 112 12 223 1z m-664
-1485 l62 -35 6 -242 c4 -132 7 -286 7 -342 l0 -100 -56 54 c-53 53 -132 167
-153 221 -5 15 -17 127 -25 250 -9 123 -18 245 -21 272 l-6 48 62 -46 c35 -25
90 -62 124 -80z m1284 -155 l-19 -275 -37 -75 c-58 -114 -161 -214 -283 -274
-130 -63 -191 -78 -349 -83 l-134 -5 7 23 c9 31 25 371 25 555 l1 141 108 7
c253 16 459 86 632 215 36 26 66 48 66 47 1 -1 -7 -125 -17 -276z m-287 -970
c-2 -41 -37 -718 -77 -1505 -80 -1572 -72 -1483 -144 -1566 -18 -22 -47 -47
-64 -55 l-30 -16 6 1587 c4 873 8 1590 11 1592 13 13 179 40 236 39 l65 -1 -3
-75z m-458 -92 c7 -165 26 -3071 21 -3077 -3 -2 -16 21 -30 52 -20 42 -28 84
-36 169 -5 62 -25 705 -44 1428 -19 723 -37 1370 -41 1438 l-6 122 65 0 65 0
6 -132z m1740 -2736 c42 -254 76 -469 76 -477 0 -13 -81 -15 -622 -15 l-622 0
145 73 c494 248 891 627 926 884 6 42 7 45 14 23 4 -14 42 -233 83 -488z
m-4604 -967 c37 -130 69 -237 71 -239 2 -2 1055 -22 2339 -45 1284 -23 2407
-45 2495 -49 95 -4 -932 -18 -2539 -35 -1485 -15 -2700 -26 -2701 -25 -4 6
259 638 263 633 2 -2 35 -110 72 -240z m5734 -1255 c127 -495 131 -515 111
-522 -11 -3 -112 -14 -225 -23 -113 -8 -221 -17 -240 -19 -19 -1 -937 3 -2040
10 -1103 7 -2266 14 -2585 15 -362 1 -552 5 -505 10 41 4 1229 76 2640 160
1411 84 2569 155 2573 159 4 4 33 169 63 366 31 197 58 366 61 374 5 13 7 13
10 0 2 -8 64 -247 137 -530z m-5839 288 c-4 -18 -11 -43 -16 -55 l-9 -23 -735
0 -735 0 27 55 27 55 724 0 724 0 -7 -32z m7438 4 c9 -16 21 -41 26 -55 l11
-27 -735 0 -735 0 -9 23 c-5 12 -12 37 -16 55 l-7 32 724 0 724 0 17 -28z
m-7477 -149 c-2 -10 -14 -55 -26 -100 l-22 -83 -760 0 c-604 0 -759 3 -755 13
3 6 22 51 43 100 l37 87 744 0 c704 0 744 -1 739 -17z m7578 -69 c21 -48 40
-93 43 -100 4 -12 -119 -14 -754 -14 l-760 0 -22 83 c-12 45 -24 90 -27 100
-5 16 35 17 739 17 l744 0 37 -86z m-3914 -768 c0 -9 -378 -1208 -383 -1212
-2 -3 -51 -3 -109 -2 l-104 3 182 580 c100 319 186 592 192 608 l10 27 106 0
c58 0 106 -2 106 -4z m197 -49 c-3 -7 -89 -271 -192 -587 -102 -316 -188 -576
-190 -578 -2 -2 -18 -2 -37 0 l-34 3 182 560 c100 308 187 572 192 588 9 23
16 27 47 27 26 0 36 -4 32 -13z m-4547 -232 l0 -55 280 0 280 0 0 55 0 55 310
0 310 0 0 -110 0 -110 -900 0 -900 0 0 110 0 110 310 0 310 0 0 -55z m6880 0
l0 -55 280 0 280 0 0 55 0 55 310 0 310 0 0 -110 0 -110 -900 0 -900 0 0 110
0 110 310 0 310 0 0 -55z m-6802 -367 l3 -58 279 0 280 0 0 60 0 60 305 0 305
0 0 -115 0 -115 -895 0 -895 0 0 115 0 115 308 -2 307 -3 3 -57z m6730 -1 l3
-57 277 2 277 3 3 58 3 57 304 0 305 0 0 -115 0 -115 -895 0 -895 0 0 115 0
115 308 -2 307 -3 3 -58z m-6658 -367 l0 -60 280 0 280 0 0 60 0 60 310 0 310
0 0 -115 0 -115 -900 0 -900 0 0 115 0 115 310 0 310 0 0 -60z m6580 0 l0 -60
280 0 280 0 0 60 0 60 310 0 310 0 0 -115 0 -115 -900 0 -900 0 0 108 c0 60 3
112 7 115 3 4 143 7 310 7 l303 0 0 -60z m-6502 -373 l3 -57 277 2 277 3 3 58
3 57 304 0 305 0 0 -115 0 -115 -895 0 -895 0 0 115 0 115 308 -2 307 -3 3
-58z m6432 3 l0 -60 278 2 277 3 3 58 3 57 304 0 305 0 0 -115 0 -115 -895 0
-895 0 0 115 0 115 310 0 310 0 0 -60z m-6360 -365 l0 -55 280 0 280 0 0 55 0
55 310 0 310 0 0 -115 0 -115 -900 0 -900 0 0 115 0 115 310 0 310 0 0 -55z
m6280 0 l0 -55 280 0 280 0 0 55 0 55 310 0 310 0 0 -115 0 -115 -897 2 -898
3 -3 113 -3 112 311 0 310 0 0 -55z"/>
<path d="M19025 30541 c343 -163 477 -501 320 -800 -87 -166 -262 -294 -480
-352 -114 -31 -326 -31 -440 0 -271 72 -476 258 -529 479 l-14 57 -1 -46 c-2
-109 76 -274 177 -378 310 -314 871 -343 1224 -62 165 131 251 302 250 497 0
163 -60 294 -196 429 -95 94 -189 153 -312 195 -88 30 -87 23 1 -19z"/>
<path d="M18601 30479 c-348 -53 -569 -337 -482 -618 52 -168 217 -309 416
-357 41 -10 111 -16 170 -16 59 0 129 6 170 16 172 41 324 155 393 294 36 74
37 79 37 187 0 108 -1 113 -37 187 -107 216 -394 348 -667 307z"/>
<path d="M16415 29819 c-49 -5 -135 -15 -190 -22 l-100 -13 181 4 c194 5 239
-2 212 -35 -33 -41 -233 -113 -506 -184 -128 -33 -165 -39 -211 -33 -50 5 -60
3 -96 -21 -32 -22 -75 -34 -215 -61 -359 -67 -749 -113 -854 -99 -129 18 -83
60 154 141 69 24 120 43 114 43 -22 2 -332 -92 -432 -129 -161 -61 -224 -102
-195 -131 20 -20 145 -28 293 -18 175 11 484 48 625 75 l30 5 -31 -19 c-55
-35 -60 -66 -34 -200 12 -64 23 -121 24 -126 0 -5 -24 -15 -54 -21 -58 -12
-59 -12 -46 -76 l5 -27 -137 -8 c-75 -4 -261 -8 -412 -8 l-275 -1 -171 37
c-95 20 -209 50 -255 66 -182 64 -389 83 -529 49 -36 -9 -103 -23 -150 -32
-143 -28 -319 -124 -460 -252 -76 -69 -318 -229 -415 -274 -156 -73 -644 -259
-680 -259 -10 0 -17 15 -21 41 l-7 41 -45 -7 c-24 -4 -51 -9 -58 -12 -15 -5
-15 -5 -44 140 -11 54 -24 107 -30 117 -12 22 -59 50 -87 51 -10 0 77 25 192
55 375 96 651 197 680 247 25 45 -76 61 -292 47 -158 -11 -426 -41 -419 -47 2
-3 53 0 112 6 192 19 289 11 289 -24 0 -54 -381 -175 -884 -279 -147 -31 -179
-35 -208 -25 -40 13 -80 5 -108 -21 -32 -30 -417 -80 -613 -80 -124 0 -158 12
-126 45 24 24 106 60 232 101 121 40 147 43 76 10 -109 -51 -81 -69 91 -62
271 11 785 109 1094 208 115 37 194 75 188 91 -2 8 -39 14 -98 19 -321 22
-1725 -312 -1866 -444 -13 -12 -23 -27 -23 -34 0 -56 391 -40 872 37 71 11
131 19 132 17 3 -3 46 -219 46 -230 0 -3 -22 -9 -50 -13 -27 -4 -53 -11 -56
-17 -3 -5 4 -63 17 -129 l23 -119 -32 -33 c-64 -66 -63 -153 2 -216 50 -49 96
-50 289 -11 86 17 161 29 166 26 4 -3 11 -18 14 -34 l6 -29 299 43 299 44 156
-69 c90 -40 164 -67 175 -64 19 4 20 -9 27 -424 l7 -428 114 -579 c63 -319
119 -585 125 -592 6 -7 26 -18 45 -24 70 -24 104 31 90 148 -4 32 -32 167 -62
302 -31 135 -82 367 -113 515 l-58 270 69 425 c38 233 71 426 73 428 7 8 90
20 97 16 5 -3 8 -139 8 -302 l0 -297 117 -599 118 -599 43 -19 c40 -18 45 -18
67 -4 52 34 47 127 -28 451 -30 132 -81 361 -113 510 l-57 270 50 313 c28 172
54 316 57 319 8 8 179 4 187 -4 9 -10 80 -365 74 -371 -2 -3 -65 -17 -140 -32
-75 -15 -138 -30 -142 -34 -6 -6 53 -315 62 -324 2 -3 141 22 307 56 167 33
304 59 306 57 1 -1 14 -60 27 -131 14 -71 27 -134 29 -140 3 -8 38 -5 118 11
62 13 115 22 117 20 4 -4 30 -124 31 -142 0 -6 -25 -25 -55 -42 -31 -17 -73
-49 -94 -70 -37 -37 -46 -41 -167 -65 -70 -14 -128 -27 -130 -29 -2 -2 116
-600 119 -603 1 -1 49 7 107 19 l106 20 78 -38 c70 -35 88 -40 170 -43 149 -7
245 35 356 155 l55 59 103 19 104 19 -6 30 c-4 17 -30 150 -58 296 -28 146
-54 269 -58 273 -4 5 -64 -3 -132 -17 l-125 -25 -59 24 c-33 13 -85 26 -116
30 l-57 7 -11 57 c-7 31 -14 65 -17 77 -4 20 4 23 111 44 136 27 128 10 91
190 -13 63 -22 116 -20 118 1 2 136 29 299 61 163 32 299 61 302 63 10 11 -58
328 -71 328 -7 0 -67 -11 -135 -25 -68 -14 -128 -25 -135 -25 -9 0 -62 246
-79 364 -2 17 96 64 167 82 37 9 69 15 71 13 1 -2 77 -126 168 -274 l165 -271
61 -344 c34 -190 75 -427 92 -528 44 -258 77 -342 135 -342 27 0 72 33 80 59
3 10 -46 279 -109 597 l-114 579 -112 285 c-62 157 -114 290 -117 296 -6 16
89 36 103 21 6 -7 110 -174 231 -373 l221 -360 66 -370 c36 -203 77 -439 91
-524 39 -239 74 -320 135 -320 16 0 37 12 55 30 l29 30 -116 588 -116 587
-156 399 c-86 219 -155 402 -154 406 2 4 52 58 111 120 l108 113 287 72 287
71 0 36 0 36 165 32 c183 36 234 57 262 110 42 80 13 169 -70 210 l-50 25 -24
120 c-27 133 -19 125 -108 114 l-34 -4 -23 114 c-13 63 -22 115 -20 117 1 1
94 25 207 53 555 138 834 256 709 300 -37 13 -251 12 -384 0z m-727 -511 c24
-125 25 -122 -45 -133 -27 -4 -43 -11 -43 -20 0 -8 9 -60 20 -116 11 -57 19
-104 17 -105 -1 -1 -23 -5 -49 -8 -39 -6 -48 -4 -48 8 0 8 -5 38 -11 66 l-11
52 -37 -7 c-20 -3 -45 -9 -57 -11 -20 -5 -23 3 -44 113 -12 65 -29 129 -37
141 -8 13 -33 32 -56 43 -36 16 -38 19 -17 19 14 0 102 16 195 34 94 19 177
34 185 35 12 1 21 -25 38 -111z m-1684 -449 c115 -16 344 -55 509 -85 165 -30
305 -54 310 -54 6 0 8 -2 5 -5 -5 -5 -1678 -295 -1700 -295 -7 1 197 67 454
148 256 81 469 150 472 153 3 3 -146 31 -332 64 -185 32 -341 62 -346 67 -6 5
-4 8 5 8 7 1 52 7 99 14 144 24 292 19 524 -15z m-2770 -333 c-41 -41 -42 -59
-14 -204 11 -57 18 -107 15 -112 -3 -4 -28 -11 -56 -15 l-51 -7 6 -37 c3 -20
8 -50 12 -67 5 -29 4 -31 -36 -43 -23 -7 -44 -10 -47 -7 -3 3 -16 54 -28 113
-23 118 -15 110 -99 102 l-40 -4 -22 110 c-12 61 -21 112 -19 113 3 3 327 75
407 91 3 0 -9 -14 -28 -33z m2723 -896 c29 -146 52 -275 53 -286 0 -16 -8 -23
-32 -28 -103 -21 -1091 -205 -1133 -211 -27 -4 -48 -5 -45 -2 7 8 412 177 723
302 147 59 266 109 265 111 -2 1 -145 -14 -318 -35 l-315 -37 -7 30 c-3 16 -8
79 -9 140 -3 90 -1 110 11 114 42 14 727 170 740 169 11 -2 28 -67 67 -267z
m-76 -1165 c104 -36 169 -130 169 -244 0 -83 -22 -133 -83 -188 -129 -119
-329 -78 -403 82 -96 205 102 423 317 350z"/>
<path d="M13720 26398 c-25 -10 -25 -10 17 -28 48 -21 63 -44 63 -95 0 -76
-100 -116 -155 -60 -14 13 -25 32 -26 42 0 16 -1 16 -9 -2 -22 -51 21 -152 80
-191 79 -52 188 -39 249 31 28 32 51 89 51 125 0 65 -58 152 -117 176 -38 16
-117 17 -153 2z"/>
<path d="M15865 29745 c-110 -18 -252 -42 -315 -54 -168 -32 -585 -132 -588
-141 -2 -4 -13 -6 -25 -3 -15 3 -18 2 -10 -4 9 -6 -2 -15 -37 -27 -54 -19 -76
-39 -64 -57 11 -19 285 -4 474 26 467 74 960 210 960 264 0 11 -36 18 -130 25
-45 3 -127 -6 -265 -29z"/>
<path d="M25740 29636 c0 -2 8 -10 18 -17 15 -13 16 -12 3 4 -13 16 -21 21
-21 13z"/>
<path d="M27966 26987 c-33 -33 -49 -98 -41 -166 10 -81 20 -101 51 -101 44 0
95 -31 110 -65 10 -25 11 -57 4 -146 -5 -63 -10 -117 -10 -121 0 -5 46 -8 103
-8 56 0 127 -6 156 -14 l54 -14 -7 211 c-6 203 -8 213 -31 249 -53 80 -213
176 -323 194 -35 5 -44 3 -66 -19z"/>
<path d="M28090 26314 c-14 -2 -42 -9 -62 -14 -35 -10 -37 -13 -43 -64 -12
-90 -22 -83 200 -142 110 -30 212 -57 226 -60 25 -6 25 -5 37 86 15 112 8 129
-75 167 -45 21 -73 26 -156 28 -56 2 -113 2 -127 -1z"/>
<path d="M11623 24894 c-139 -114 -152 -127 -148 -152 3 -15 19 -137 35 -272
17 -135 33 -262 36 -283 l6 -38 -41 20 c-22 12 -59 21 -82 21 -65 0 -363 -31
-371 -38 -8 -8 -158 -408 -158 -422 0 -6 12 -10 28 -10 15 0 79 -9 142 -20
l115 -19 48 -52 c26 -29 82 -104 124 -166 l77 -113 4 -229 5 -229 -37 -73
c-20 -41 -49 -90 -66 -109 l-30 -34 0 29 c0 17 9 107 21 200 35 293 12 413
-104 527 -79 78 -241 147 -406 172 -41 6 -38 3 47 -39 55 -28 111 -65 140 -93
46 -45 49 -52 85 -187 21 -77 37 -144 37 -149 0 -9 -312 -4 -734 11 l-188 6 4
53 c5 63 87 240 138 297 33 38 168 127 265 174 30 15 55 30 55 34 0 10 -80 78
-112 95 -34 18 -705 88 -773 80 -94 -10 -123 -24 -201 -98 -102 -97 -165 -183
-229 -313 -87 -175 -125 -337 -125 -532 l0 -96 -77 6 c-43 4 -150 9 -238 13
l-160 6 -120 -85 c-66 -47 -129 -94 -139 -106 -16 -17 -25 -81 -62 -418 -24
-219 -43 -399 -44 -400 0 -1 -42 -36 -92 -78 -51 -42 -142 -122 -201 -178
l-109 -100 -386 -13 c-213 -7 -435 -13 -493 -13 l-105 -1 -18 56 c-51 160
-173 339 -283 415 l-44 31 -55 -43 c-248 -191 -407 -594 -415 -1051 l-2 -106
-30 -6 c-70 -14 -67 -20 -67 124 0 214 32 441 86 609 34 103 112 262 168 341
l47 65 -49 -51 c-191 -201 -306 -537 -321 -934 l-6 -165 -49 -3 -49 -3 6 198
c3 109 13 244 22 300 34 221 117 442 221 591 l46 67 -37 -35 c-49 -47 -137
-180 -179 -271 -93 -202 -136 -410 -143 -690 l-5 -196 -36 -17 c-24 -12 -38
-14 -45 -7 -19 19 -21 323 -3 479 34 290 130 562 253 714 l27 33 -37 -35 c-85
-79 -187 -258 -240 -421 -62 -190 -88 -382 -86 -638 1 -173 1 -174 -23 -187
-12 -7 -28 -13 -35 -14 -33 -1 -53 297 -34 506 29 308 103 539 236 734 68 101
38 79 -47 -34 -139 -185 -228 -436 -259 -734 -11 -112 -8 -446 6 -488 5 -15 0
-23 -20 -32 -14 -7 -30 -12 -35 -12 -25 0 -60 219 -60 371 0 392 95 741 263
969 l48 65 -51 -54 c-169 -179 -284 -463 -319 -793 -17 -155 -13 -398 8 -506
l18 -94 -24 -9 c-37 -14 -38 -13 -56 44 -87 276 -71 695 38 1024 19 56 48 129
65 162 16 34 28 61 25 61 -9 0 -103 -147 -140 -220 -97 -193 -134 -347 -142
-590 -6 -186 8 -325 47 -480 11 -41 18 -75 17 -75 -1 0 -21 -13 -44 -28 l-43
-27 0 -296 0 -295 -25 -43 c-14 -24 -34 -51 -45 -61 -15 -13 -17 -22 -9 -36
19 -37 110 -139 123 -139 33 0 336 161 405 215 l73 58 227 -32 c374 -54 1885
-261 2708 -372 l773 -104 0 -111 0 -111 48 -6 c26 -3 100 -11 164 -18 l118
-11 472 282 c260 155 479 288 487 295 7 7 16 43 20 79 l7 66 -88 0 -87 0 4 48
c3 26 7 91 10 146 l5 98 -84 122 c-57 82 -111 145 -166 194 -57 53 -89 91
-110 133 -17 32 -32 59 -35 59 -10 0 -621 -454 -632 -470 -8 -11 -28 -22 -46
-25 -28 -5 -977 34 -1222 50 l-91 7 4 34 c4 31 2 34 -22 34 -67 0 -17 23 429
195 160 62 326 130 369 151 102 49 160 54 252 24 38 -13 81 -29 96 -37 27 -13
35 -10 215 96 l188 109 455 -30 c250 -16 456 -31 458 -33 2 -1 16 -86 31 -187
15 -101 30 -189 34 -195 3 -5 11 -63 17 -128 22 -236 111 -487 210 -595 l41
-45 -26 45 c-68 117 -129 286 -159 445 -51 271 -52 685 -1 925 27 130 26 128
10 86 -8 -22 -17 -41 -18 -43 -7 -6 -1029 83 -1055 92 -20 7 11 53 78 120 l55
55 255 -20 c140 -10 276 -21 302 -24 l48 -5 -19 49 c-64 168 -201 295 -362
337 -52 13 -70 23 -78 41 -14 30 -15 29 15 35 40 7 148 -19 207 -50 61 -33
176 -139 220 -203 18 -25 52 -83 77 -130 l45 -85 95 -7 c52 -4 116 -9 142 -11
l46 -4 18 46 c9 25 27 66 40 91 l22 46 -27 70 c-71 181 -227 326 -380 350 -43
7 -80 42 -66 64 10 16 77 12 146 -10 76 -23 155 -75 223 -144 50 -51 140 -180
151 -217 6 -18 8 -19 24 -5 12 11 58 18 166 26 83 6 177 13 210 15 33 3 166
12 295 20 129 8 266 18 304 21 l70 6 -40 -48 c-215 -261 -318 -641 -301 -1114
15 -388 84 -670 213 -862 56 -84 44 -89 -32 -12 -185 184 -286 551 -286 1039
-1 321 37 535 133 760 44 103 26 88 -32 -28 -150 -296 -202 -727 -144 -1193
31 -252 114 -485 219 -618 l31 -40 -34 20 c-69 40 -163 171 -220 309 -140 335
-167 946 -61 1335 23 84 46 147 84 235 33 76 9 46 -42 -54 -71 -136 -118 -290
-149 -487 -23 -148 -23 -527 0 -705 35 -261 115 -491 219 -621 46 -59 15 -45
-55 25 -189 186 -289 548 -289 1047 0 323 42 549 146 783 25 57 11 44 -28 -25
-76 -137 -131 -312 -163 -518 -21 -141 -24 -499 -4 -665 32 -275 111 -512 215
-648 52 -69 24 -57 -53 21 -184 187 -281 541 -283 1027 -1 338 47 593 154 810
21 43 23 53 9 35 -34 -42 -108 -200 -140 -297 -87 -267 -111 -633 -66 -998 31
-250 101 -454 207 -607 l40 -56 86 -16 c283 -51 564 -46 735 13 74 26 171 77
194 104 18 19 18 20 -4 8 -34 -17 -109 -13 -152 9 -55 28 -125 112 -170 205
-55 114 -59 140 -10 66 178 -267 407 -77 490 407 102 600 -87 1256 -347 1207
-38 -7 -114 -72 -157 -135 -26 -39 25 78 58 130 87 141 201 193 304 140 54
-27 121 -107 165 -196 35 -72 96 -241 96 -269 0 -8 19 -16 53 -20 92 -13 92
-13 104 -105 6 -44 13 -83 16 -86 4 -4 1055 714 1086 742 1 1 -7 32 -19 68
-30 91 -49 206 -50 298 0 70 -2 77 -22 84 l-22 7 21 16 c11 10 22 33 25 54 3
32 1 38 -25 48 -30 13 -57 55 -57 89 0 12 24 78 54 148 30 70 101 246 159 392
58 146 125 312 151 369 25 57 46 107 46 112 0 5 -78 9 -174 9 l-174 0 -35 -39
c-19 -21 -90 -120 -157 -221 -141 -210 -239 -343 -355 -485 -100 -122 -218
-235 -246 -235 -11 0 -83 16 -161 35 -77 20 -142 34 -144 32 -2 -2 44 -30 101
-63 58 -32 105 -62 105 -65 0 -26 -1157 -485 -1638 -650 l-123 -42 -72 69
c-40 38 -72 73 -72 77 0 5 378 162 841 351 606 246 853 351 883 375 139 110
385 492 482 749 13 34 29 62 36 62 6 0 107 -11 223 -25 116 -14 217 -25 223
-25 7 1 -5 10 -27 21 l-39 21 7 91 c13 179 17 207 35 207 9 0 131 -18 271 -40
140 -22 264 -40 275 -40 14 0 29 17 53 63 18 35 52 94 77 131 27 41 39 68 32
71 -13 4 -715 95 -733 95 -6 0 -23 32 -38 70 -15 39 -33 70 -40 70 -7 0 -97 9
-200 20 l-187 21 -76 -71 c-58 -53 -84 -70 -105 -70 -16 0 -201 11 -411 25
l-382 25 -132 63 -132 62 0 134 -1 134 43 -6 c23 -3 580 -56 1237 -118 657
-62 1198 -115 1202 -118 4 -3 14 -49 22 -101 9 -52 19 -105 21 -118 l6 -23 38
31 c66 51 99 60 229 60 l120 0 6 258 c3 141 9 337 12 435 l6 177 -22 0 c-21 0
-2830 245 -2920 255 l-45 5 -152 -126z m1682 -60 c792 -75 1442 -138 1444
-140 3 -3 -339 -424 -346 -424 -2 0 7 17 20 38 78 123 187 304 187 310 0 4
-596 69 -1325 146 l-1325 138 -151 -82 c-83 -44 -153 -80 -154 -78 -2 2 36 54
83 116 59 75 94 112 107 112 11 0 668 -61 1460 -136z m-2075 -1835 c-10 -48
-29 -154 -41 -237 -12 -84 -25 -155 -28 -160 -11 -16 -257 -100 -336 -115
-133 -26 -175 -28 -295 -17 -204 19 -180 7 -281 141 l-89 118 0 89 0 89 40 27
c42 27 62 34 42 14 -20 -20 -14 -66 11 -83 58 -37 300 -105 378 -105 118 0
339 109 527 260 47 38 87 68 88 67 2 -2 -5 -41 -16 -88z m-2330 -404 c190 -31
354 -60 366 -64 12 -5 25 -26 33 -52 7 -24 18 -50 23 -56 8 -10 5 -13 -9 -13
-14 0 -722 213 -778 235 -31 11 55 0 365 -50z m3250 -132 c0 -41 -20 -104 -41
-134 -39 -55 -189 -105 -339 -114 -58 -3 -125 -8 -150 -11 -42 -5 -49 -2 -107
45 l-61 51 -49 -41 c-41 -35 -53 -39 -83 -35 -19 3 -63 6 -97 6 -53 0 -64 3
-73 21 -7 11 -10 22 -8 24 2 2 53 9 113 15 173 19 175 20 207 115 15 44 28 81
28 83 0 1 149 2 330 2 l330 0 0 -27z m-2008 -148 l487 -53 46 -38 c25 -21 45
-41 45 -44 0 -3 -42 -16 -92 -29 -51 -13 -160 -46 -242 -73 -665 -221 -1271
-559 -1762 -981 -290 -251 -661 -681 -678 -787 -8 -51 -63 -114 -114 -131 -69
-23 -280 -7 -502 37 -49 10 -97 29 -140 54 -36 21 -66 37 -68 35 -2 -2 2 -13
8 -25 11 -20 10 -21 -27 -14 -123 22 -175 32 -179 36 -2 3 10 42 27 89 38 103
85 284 94 362 4 32 13 61 20 63 7 3 79 -1 161 -9 l149 -14 75 81 c332 360 651
617 1100 886 334 200 765 402 1078 505 l83 27 -68 40 c-86 50 -87 51 -33 44
25 -4 264 -31 532 -61z m-3422 -595 c16 -12 35 -30 40 -40 10 -18 8 -18 -17
-4 -79 41 -149 -8 -211 -147 -129 -287 -101 -799 55 -1007 44 -59 115 -79 162
-46 22 16 23 16 12 -5 -7 -12 -29 -33 -51 -47 -30 -20 -48 -25 -82 -22 -40 3
-62 -8 -332 -167 -267 -157 -287 -170 -260 -177 16 -4 762 -78 1657 -164 1494
-143 1630 -154 1646 -140 10 9 21 16 26 16 7 0 -1 -240 -9 -247 -3 -4 -3877
404 -3881 409 -2 2 191 105 428 230 428 224 433 227 507 233 41 3 97 8 123 11
l48 6 -41 45 c-104 112 -160 329 -160 618 0 330 77 577 205 657 37 24 92 19
135 -12z m3556 6 c122 -32 247 -128 333 -255 42 -62 124 -221 117 -228 -2 -2
-26 -1 -54 3 -48 6 -50 8 -62 48 -50 171 -233 344 -391 371 -47 8 -84 50 -58
66 20 12 56 11 115 -5z m-2413 -350 c-4 -7 -32 -39 -61 -71 l-53 -58 -231 39
c-127 21 -223 41 -214 42 38 8 493 60 529 61 30 1 36 -2 30 -13z m-513 -221
c140 -14 265 -25 278 -25 22 0 22 -1 -10 -45 -23 -31 -40 -44 -58 -45 -14 0
-130 9 -257 22 l-233 22 0 32 c0 18 -3 39 -6 48 -8 20 -20 21 286 -9z m4700
-124 c113 -81 178 -417 135 -702 -41 -275 -159 -415 -269 -318 -151 132 -188
644 -66 914 55 121 126 159 200 106z m-1637 -125 c147 -12 269 -25 271 -27 2
-2 2 -17 -1 -33 -6 -28 -6 -28 -67 -23 -34 3 -204 14 -378 24 -175 9 -318 20
-318 23 0 19 126 58 185 59 22 0 160 -10 308 -23z"/>
<path d="M27348 24723 c6 -2 18 -2 25 0 6 3 1 5 -13 5 -14 0 -19 -2 -12 -5z"/>
<path d="M27488 24723 c6 -2 18 -2 25 0 6 3 1 5 -13 5 -14 0 -19 -2 -12 -5z"/>
<path d="M26759 24453 c-13 -16 -12 -17 4 -4 16 13 21 21 13 21 -2 0 -10 -8
-17 -17z"/>
<path d="M26564 24258 l-19 -23 23 19 c21 18 27 26 19 26 -2 0 -12 -10 -23
-22z"/>
<path d="M23025 24212 c-76 -36 -166 -131 -218 -229 -20 -39 -37 -76 -37 -82
0 -7 27 -11 75 -11 107 0 185 -42 264 -141 l38 -47 179 105 c98 58 181 108
184 110 11 10 -69 140 -123 199 -112 122 -236 155 -362 96z"/>
<path d="M30390 22397 c0 -45 0 -45 -44 -56 -68 -17 -68 -17 -64 39 4 62 -1
63 -101 15 -50 -24 -93 -55 -135 -98 l-63 -62 -9 -82 c-5 -46 -7 -79 -4 -75 3
4 18 24 34 45 30 41 91 77 131 77 88 0 175 -105 210 -252 60 -254 -51 -541
-209 -541 -84 0 -166 83 -198 201 -11 37 -16 42 -40 42 -35 0 -36 -17 -4 -104
94 -260 317 -415 543 -378 181 30 338 176 408 379 92 264 34 562 -145 744 -74
76 -177 133 -262 145 l-48 6 0 -45z m249 -204 c7 -32 15 -68 18 -80 l5 -23
-150 0 -150 0 -12 30 c-7 17 -25 48 -41 70 l-28 38 92 6 c51 4 110 8 132 9 22
2 58 4 81 5 l41 2 12 -57z m76 -254 c4 -27 4 -53 1 -56 -3 -4 -39 -8 -79 -10
-39 -2 -83 -5 -96 -9 l-24 -5 20 -22 c15 -16 22 -42 27 -101 l6 -78 -48 7
c-26 4 -60 12 -75 18 l-28 12 -3 120 c-2 66 -5 127 -7 135 -5 19 95 37 213 39
l86 1 7 -51z m-262 -395 l52 -27 95 17 c52 9 100 16 106 16 8 0 10 -16 6 -47
-2 -27 -6 -49 -7 -51 -4 -5 -356 -33 -370 -30 -7 2 0 28 22 76 18 39 36 72 39
72 2 0 28 -12 57 -26z"/>
<path d="M30038 22095 c-40 -27 -88 -112 -88 -156 0 -15 -4 -31 -10 -34 -16
-10 -11 -32 8 -37 10 -3 23 -21 29 -42 11 -35 11 -36 -16 -36 -35 0 -38 -4
-33 -40 3 -24 9 -30 28 -30 29 0 28 0 7 -44 -14 -30 -14 -39 -2 -67 17 -43 64
-96 102 -115 119 -62 242 132 224 351 -18 206 -137 326 -249 250z"/>
<path d="M5783 22064 c9 -9 18 -10 152 -17 87 -5 91 -5 30 3 -149 18 -190 21
-182 14z"/>
<path d="M6078 22033 c12 -2 30 -2 40 0 9 3 -1 5 -23 4 -22 0 -30 -2 -17 -4z"/>
<path d="M29875 21880 c-18 -8 -17 -9 8 -9 15 -1 27 4 27 9 0 12 -8 12 -35 0z"/>
<path d="M29857 21783 c-4 -3 -7 -19 -7 -35 0 -24 4 -28 30 -28 28 0 30 3 30
35 0 30 -3 35 -23 35 -13 0 -27 -3 -30 -7z"/>
<path d="M10997 21308 c-160 -275 -229 -602 -213 -1001 15 -351 65 -585 169
-782 l42 -80 65 -22 c36 -12 82 -25 103 -28 l39 -8 -52 49 c-63 59 -98 108
-149 211 -90 181 -132 375 -151 697 -20 361 36 721 149 944 36 71 35 82 -2 20z"/>
<path d="M12550 19175 c-258 -42 -473 -156 -663 -350 -54 -55 -775 -901 -1602
-1880 l-1503 -1780 856 -3 c472 -1 862 0 868 2 6 2 494 577 1085 1278 590 700
1087 1290 1105 1310 l33 37 358 -442 c426 -527 778 -958 884 -1082 l76 -90
-1007 3 -1007 4 -441 -509 -441 -508 1369 -3 c753 -1 1988 -1 2744 0 l1376 3
-1491 1810 c-820 996 -1520 1841 -1557 1878 -157 161 -332 258 -552 308 -114
26 -372 34 -490 14z"/>
<path d="M18930 19119 c-417 -17 -804 -86 -1165 -209 -708 -242 -1207 -684
-1389 -1231 -106 -319 -108 -673 -6 -989 41 -130 156 -355 237 -469 316 -440
865 -780 1528 -945 134 -33 288 -62 470 -88 147 -21 178 -22 1535 -25 l1385
-3 467 507 468 508 -1798 6 c-1785 5 -1798 5 -1907 27 -348 68 -595 188 -775
379 -41 43 -90 105 -109 136 -195 330 -130 733 162 1003 201 187 515 314 872
354 56 6 573 10 1352 10 l1261 0 466 511 c256 282 466 516 466 520 0 11 -3258
9 -3520 -2z"/>
<path d="M22977 19123 c-4 -3 -7 -897 -7 -1985 l0 -1978 2280 0 2279 0 466
505 c256 277 465 507 465 510 0 3 -904 5 -2010 5 l-2010 0 0 270 0 270 1458 1
1457 0 416 447 416 447 -1873 3 -1874 2 0 235 0 235 1533 1 1532 0 464 507
c256 279 466 513 469 520 3 9 -547 12 -2725 12 -1502 0 -2733 -3 -2736 -7z"/>
<path d="M1080 15879 c0 -22 113 -128 169 -157 40 -22 370 -119 1126 -332 692
-194 1086 -310 1118 -328 80 -43 150 -113 192 -192 31 -60 45 -109 85 -303
124 -600 270 -1142 458 -1702 l77 -230 0 -110 c-1 -126 -20 -190 -83 -273 -20
-27 -377 -397 -792 -822 -415 -425 -769 -792 -786 -816 -91 -127 -113 -304
-57 -446 9 -24 206 -371 438 -773 232 -401 574 -995 761 -1319 281 -488 349
-599 395 -646 97 -98 226 -147 364 -137 46 3 427 96 1115 272 1169 299 1168
299 1300 255 93 -31 155 -75 246 -176 301 -334 405 -446 614 -658 263 -267
485 -479 737 -704 235 -210 276 -277 277 -457 1 -99 -3 -113 -268 -1145 -299
-1166 -299 -1162 -257 -1298 25 -83 85 -176 144 -224 52 -44 2630 -1533 2712
-1568 52 -22 74 -25 170 -25 121 1 180 17 266 75 24 16 397 374 829 796 468
457 809 782 845 806 79 52 151 72 255 72 78 0 102 -6 289 -67 575 -191 1144
-344 1731 -467 145 -31 266 -62 297 -77 64 -29 156 -112 194 -172 40 -62 37
-54 354 -1181 178 -635 296 -1039 315 -1079 62 -128 188 -227 327 -256 101
-22 3065 -22 3166 0 129 27 252 117 318 231 21 38 111 343 330 1119 165 588
312 1093 327 1124 35 73 132 169 204 204 60 29 114 42 398 102 497 103 1040
251 1605 436 234 76 255 82 335 81 98 0 175 -23 255 -76 27 -18 405 -379 838
-802 434 -423 812 -784 840 -802 133 -84 322 -96 457 -28 19 10 622 356 1339
770 1103 635 1313 760 1363 807 102 100 158 258 138 396 -4 32 -128 528 -274
1103 -147 575 -269 1072 -273 1105 -12 134 38 268 139 368 35 34 149 139 253
232 343 306 854 821 1174 1183 150 170 214 220 323 253 132 40 128 41 1288
-257 l1045 -269 105 1 c85 0 116 5 162 23 76 30 166 97 210 157 61 84 1538
2652 1557 2707 29 84 34 162 17 245 -25 122 -63 179 -236 357 -86 88 -436 446
-777 796 -341 350 -637 661 -657 690 -50 74 -76 163 -76 260 0 71 7 102 71
297 203 626 329 1096 464 1729 42 198 61 266 86 312 38 72 126 159 196 195 28
14 531 160 1118 326 746 210 1084 309 1124 330 58 31 125 90 162 142 l20 28
-1823 -2 -1823 -3 -22 -165 c-498 -3683 -2458 -7027 -5443 -9287 -704 -532
-1388 -956 -2200 -1361 -494 -247 -868 -410 -1355 -592 -2965 -1104 -6251
-1171 -9254 -188 -1877 614 -3563 1594 -5061 2942 -187 168 -808 789 -976 976
-1341 1490 -2324 3183 -2939 5059 -242 741 -430 1544 -540 2306 -19 138 -38
265 -41 283 l-5 32 -1804 0 c-1280 0 -1805 -3 -1805 -11z"/>
<path d="M5590 14384 c0 -17 129 -483 184 -667 528 -1741 1440 -3406 2621
-4787 320 -374 802 -875 1135 -1180 2253 -2064 5077 -3284 8110 -3505 664 -48
1388 -44 2065 10 1393 113 2766 445 4045 977 2193 913 4101 2388 5547 4288
1057 1389 1856 3032 2287 4698 l44 172 -13019 0 c-7160 0 -13019 -3 -13019 -6z
m5950 -1169 c196 -37 312 -89 410 -181 109 -104 168 -229 207 -439 16 -88 18
-159 18 -600 0 -536 -3 -580 -56 -752 -116 -378 -419 -509 -1129 -490 -317 9
-469 36 -625 112 -200 96 -305 265 -352 565 -15 98 -18 180 -18 565 0 318 4
476 13 540 57 395 207 579 537 660 155 38 235 44 585 40 249 -2 345 -7 410
-20z m10161 14 c299 -30 469 -110 538 -252 42 -87 53 -145 58 -324 l6 -173
-282 0 -281 0 0 63 c0 125 -35 185 -125 214 -66 21 -403 30 -503 13 -135 -22
-162 -59 -162 -222 0 -130 14 -161 91 -200 67 -34 153 -52 345 -73 515 -55
703 -106 829 -226 115 -108 146 -226 146 -539 0 -166 -4 -223 -20 -300 -56
-261 -191 -380 -501 -437 -79 -15 -152 -18 -440 -17 -372 0 -513 10 -666 49
-197 50 -285 125 -335 287 -20 64 -43 312 -37 408 l3 55 283 3 282 2 0 -64 c0
-155 37 -218 151 -252 55 -16 97 -19 294 -19 254 0 307 9 358 63 39 41 47 73
47 190 -1 162 -29 209 -156 252 -66 23 -214 45 -404 60 -455 37 -683 128 -775
310 -56 111 -68 184 -69 430 0 242 9 308 58 416 68 149 235 245 481 278 124
17 640 20 786 5z m4985 -12 c448 -80 607 -285 645 -836 13 -183 6 -796 -11
-916 -32 -235 -92 -379 -204 -491 -112 -112 -256 -171 -501 -206 -142 -20
-642 -17 -784 5 -225 35 -356 92 -466 202 -112 112 -170 250 -199 480 -34 260
-28 954 9 1155 74 399 265 565 715 619 124 15 689 6 796 -12z m-18506 -467 l0
-460 418 2 417 3 3 458 2 457 305 0 305 0 0 -1215 0 -1215 -305 0 -305 0 0
485 0 485 -420 0 -420 0 0 -485 0 -485 -305 0 -305 0 0 1215 0 1215 305 0 305
0 0 -460z m5988 432 c188 -50 289 -139 337 -299 54 -178 40 -525 -25 -653 -41
-80 -129 -144 -234 -171 -54 -13 -51 -20 19 -38 126 -31 225 -102 270 -195 75
-152 84 -500 20 -705 -43 -136 -132 -234 -254 -281 -137 -53 -139 -53 -973
-57 l-778 -4 0 1216 0 1216 768 -4 c751 -3 769 -3 850 -25z m2390 0 c202 -54
302 -151 349 -339 12 -51 17 -115 17 -253 0 -196 -12 -278 -54 -360 -40 -78
-126 -142 -228 -169 -23 -7 -42 -15 -42 -19 0 -4 23 -13 51 -19 117 -28 215
-94 265 -178 49 -84 66 -183 68 -380 1 -203 -14 -302 -64 -412 -53 -116 -163
-202 -307 -238 -124 -31 -234 -35 -950 -35 l-723 0 0 1215 0 1216 768 -4 c751
-3 769 -3 850 -25z m1402 -513 c124 -298 229 -542 234 -543 6 0 107 242 226
539 l216 540 328 3 c261 2 327 0 323 -10 -3 -7 -184 -377 -401 -821 l-396
-808 0 -395 0 -394 -305 0 -305 0 0 393 0 394 -316 649 c-174 357 -354 727
-399 822 l-84 172 327 0 327 0 225 -541z m5372 84 l3 -458 418 -3 417 -2 0
460 0 460 305 0 305 0 0 -1215 0 -1215 -305 0 -305 0 0 485 0 485 -420 0 -420
0 0 -485 0 -485 -305 0 -305 0 0 1215 0 1215 305 0 305 0 2 -457z m5733 446
c459 -56 585 -244 585 -869 0 -604 -117 -794 -535 -866 -65 -12 -190 -17 -452
-21 l-363 -6 0 -328 0 -329 -300 0 -300 0 0 1215 0 1215 638 0 c403 0 670 -4
727 -11z m-10245 -3749 c110 -344 208 -646 216 -673 l16 -47 719 2 c395 2 719
2 719 2 0 -1 -261 -190 -580 -420 -319 -231 -580 -423 -580 -429 0 -5 99 -311
219 -680 121 -368 218 -672 216 -673 -2 -2 -263 185 -580 417 l-577 420 -86
-63 c-616 -451 -1066 -776 -1069 -773 -2 3 96 307 217 678 209 639 219 674
203 690 -10 9 -265 195 -568 414 -302 218 -555 402 -562 408 -9 9 162 11 705
9 l717 -2 219 680 c121 374 223 677 227 673 4 -5 98 -289 209 -633z m-2680
-890 l0 -270 -2042 0 c-1768 0 -2054 2 -2128 15 -282 50 -469 136 -620 285
-73 71 -170 205 -170 233 0 4 1116 7 2480 7 l2480 0 0 -270z m9876 222 c-118
-233 -369 -396 -720 -467 l-124 -25 -2046 0 -2046 0 0 270 0 270 2480 0 2480
0 -24 -48z m-9876 -922 l0 -270 -1412 2 -1413 3 -98 22 c-273 63 -454 155
-590 303 -56 62 -116 148 -133 193 -6 16 85 17 1820 17 l1826 0 0 -270z m8590
264 c0 -4 -16 -33 -37 -66 -137 -227 -349 -362 -688 -440 l-100 -22 -1412 -3
-1413 -3 0 270 0 270 1825 0 c1004 0 1825 -3 1825 -6z m-8590 -959 l0 -276
-752 4 c-727 3 -756 4 -852 25 -271 59 -460 154 -598 301 -57 59 -148 192
-148 214 0 4 529 7 1175 7 l1175 0 0 -275z m7260 216 c-122 -228 -360 -382
-715 -462 -98 -22 -115 -23 -852 -26 l-753 -4 0 276 0 275 1176 0 1175 0 -31
-59z"/>
<path d="M10960 12753 c-234 -22 -312 -109 -341 -382 -16 -158 -6 -764 14
-852 31 -135 90 -211 192 -246 42 -15 85 -18 260 -18 242 0 288 10 361 77 96
89 114 193 114 664 0 448 -12 539 -86 645 -64 92 -265 136 -514 112z"/>
<path d="M26081 12750 c-171 -24 -243 -83 -287 -235 -15 -52 -18 -118 -21
-468 -4 -415 0 -497 33 -594 32 -93 98 -158 189 -186 56 -17 435 -16 492 1 73
22 135 71 165 132 56 110 62 166 63 595 0 341 -2 401 -18 475 -47 216 -134
277 -412 285 -77 2 -169 0 -204 -5z"/>
<path d="M13140 12505 l0 -266 359 3 c345 3 361 4 388 24 55 40 68 84 68 234
0 116 -3 141 -21 181 -38 82 -44 84 -446 87 l-348 3 0 -266z"/>
<path d="M13140 11525 l0 -285 348 0 c221 0 361 4 387 11 52 15 100 65 115
119 15 57 15 242 0 300 -18 69 -52 107 -112 125 -42 12 -116 15 -395 15 l-343
0 0 -285z"/>
<path d="M15530 12505 l0 -266 359 3 c345 3 361 4 388 24 56 41 68 84 68 239
0 126 -3 144 -23 183 -40 75 -46 77 -444 80 l-348 3 0 -266z"/>
<path d="M15530 11525 l0 -285 348 0 c221 0 361 4 387 11 52 15 100 65 116
120 18 65 15 263 -5 319 -42 114 -67 120 -503 120 l-343 0 0 -285z"/>
<path d="M28300 12335 l0 -417 283 4 c201 3 292 8 317 18 57 21 101 60 124
109 20 43 21 62 21 286 0 232 -1 242 -24 288 -27 55 -74 90 -141 107 -25 7
-165 14 -312 17 l-268 5 0 -417z"/>
</g>
</svg>
